<svg xmlns="http://www.w3.org/2000/svg" width="980" height="590" viewBox="0 0 980 590">
<rect width="100%" height="100%" fill="#FFFFFF"/>
<text x="40" y="40" font-family="Arial, sans-serif" font-size="25" font-weight="700" fill="#222222">Life Insurance Reserve Scenarios</text>
<text x="40" y="64" font-family="Arial, sans-serif" font-size="13" fill="#555555">30-year continuous reserve paths under mortality, interest, and benefit sensitivity assumptions</text>
<line x1="82.00" y1="82" x2="82.00" y2="520" stroke="#EFEFEF"/>
<text x="82.00" y="546" text-anchor="middle" font-family="Arial, sans-serif" font-size="12" fill="#555555">0</text>
<line x1="196.67" y1="82" x2="196.67" y2="520" stroke="#EFEFEF"/>
<text x="196.67" y="546" text-anchor="middle" font-family="Arial, sans-serif" font-size="12" fill="#555555">5</text>
<line x1="311.33" y1="82" x2="311.33" y2="520" stroke="#EFEFEF"/>
<text x="311.33" y="546" text-anchor="middle" font-family="Arial, sans-serif" font-size="12" fill="#555555">10</text>
<line x1="426.00" y1="82" x2="426.00" y2="520" stroke="#EFEFEF"/>
<text x="426.00" y="546" text-anchor="middle" font-family="Arial, sans-serif" font-size="12" fill="#555555">15</text>
<line x1="540.67" y1="82" x2="540.67" y2="520" stroke="#EFEFEF"/>
<text x="540.67" y="546" text-anchor="middle" font-family="Arial, sans-serif" font-size="12" fill="#555555">20</text>
<line x1="655.33" y1="82" x2="655.33" y2="520" stroke="#EFEFEF"/>
<text x="655.33" y="546" text-anchor="middle" font-family="Arial, sans-serif" font-size="12" fill="#555555">25</text>
<line x1="770.00" y1="82" x2="770.00" y2="520" stroke="#EFEFEF"/>
<text x="770.00" y="546" text-anchor="middle" font-family="Arial, sans-serif" font-size="12" fill="#555555">30</text>
<line x1="82" y1="520.00" x2="770" y2="520.00" stroke="#E1E1E1"/>
<text x="72" y="524.00" text-anchor="end" font-family="Arial, sans-serif" font-size="12" fill="#555555">-63,000</text>
<line x1="82" y1="432.40" x2="770" y2="432.40" stroke="#E1E1E1"/>
<text x="72" y="436.40" text-anchor="end" font-family="Arial, sans-serif" font-size="12" fill="#555555">-50,400</text>
<line x1="82" y1="344.80" x2="770" y2="344.80" stroke="#E1E1E1"/>
<text x="72" y="348.80" text-anchor="end" font-family="Arial, sans-serif" font-size="12" fill="#555555">-37,800</text>
<line x1="82" y1="257.20" x2="770" y2="257.20" stroke="#E1E1E1"/>
<text x="72" y="261.20" text-anchor="end" font-family="Arial, sans-serif" font-size="12" fill="#555555">-25,200</text>
<line x1="82" y1="169.60" x2="770" y2="169.60" stroke="#E1E1E1"/>
<text x="72" y="173.60" text-anchor="end" font-family="Arial, sans-serif" font-size="12" fill="#555555">-12,600</text>
<line x1="82" y1="82.00" x2="770" y2="82.00" stroke="#E1E1E1"/>
<text x="72" y="86.00" text-anchor="end" font-family="Arial, sans-serif" font-size="12" fill="#555555">0</text>
<line x1="82" y1="82" x2="82" y2="520" stroke="#333333"/>
<line x1="82" y1="520" x2="770" y2="520" stroke="#333333"/>
<text x="426.0" y="572" text-anchor="middle" font-family="Arial, sans-serif" font-size="13" fill="#333333">Policy year</text>
<text x="22" y="301.0" transform="rotate(-90 22 301.0)" text-anchor="middle" font-family="Arial, sans-serif" font-size="13" fill="#333333">Reserve</text>
<polyline points="82.00,82.00 120.22,82.73 158.44,83.48 196.67,84.24 234.89,85.01 273.11,85.80 311.33,86.61 349.56,87.43 387.78,88.27 426.00,89.13 464.22,90.00 502.44,90.89 540.67,91.80 578.89,92.72 617.11,93.66 655.33,94.63 693.56,95.61 731.78,96.61 770.00,97.63" fill="none" stroke="#3B6EA8" stroke-width="3" stroke-linejoin="round" stroke-linecap="round"/>
<polyline points="82.00,82.00 120.22,84.49 158.44,87.03 196.67,89.64 234.89,92.30 273.11,95.02 311.33,97.80 349.56,100.64 387.78,103.55 426.00,106.52 464.22,109.55 502.44,112.66 540.67,115.83 578.89,119.08 617.11,122.40 655.33,125.79 693.56,129.25 731.78,132.80 770.00,136.42" fill="none" stroke="#CC6B49" stroke-width="3" stroke-linejoin="round" stroke-linecap="round"/>
<polyline points="82.00,82.00 120.22,82.73 158.44,83.47 196.67,84.22 234.89,84.98 273.11,85.74 311.33,86.52 349.56,87.31 387.78,88.11 426.00,88.93 464.22,89.75 502.44,90.58 540.67,91.42 578.89,92.28 617.11,93.15 655.33,94.03 693.56,94.92 731.78,95.82 770.00,96.73" fill="none" stroke="#8B9A46" stroke-width="3" stroke-linejoin="round" stroke-linecap="round"/>
<polyline points="82.00,82.00 120.22,83.61 158.44,85.25 196.67,86.92 234.89,88.63 273.11,90.37 311.33,92.14 349.56,93.95 387.78,95.80 426.00,97.68 464.22,99.60 502.44,101.56 540.67,103.55 578.89,105.59 617.11,107.66 655.33,109.78 693.56,111.94 731.78,114.14 770.00,116.38" fill="none" stroke="#A45A7A" stroke-width="3" stroke-linejoin="round" stroke-linecap="round"/>
<line x1="808" y1="98" x2="836" y2="98" stroke="#3B6EA8" stroke-width="4" stroke-linecap="round"/>
<text x="846" y="102" font-family="Arial, sans-serif" font-size="13" fill="#333333">Base</text>
<line x1="808" y1="128" x2="836" y2="128" stroke="#CC6B49" stroke-width="4" stroke-linecap="round"/>
<text x="846" y="132" font-family="Arial, sans-serif" font-size="13" fill="#333333">Higher mortality</text>
<line x1="808" y1="158" x2="836" y2="158" stroke="#8B9A46" stroke-width="4" stroke-linecap="round"/>
<text x="846" y="162" font-family="Arial, sans-serif" font-size="13" fill="#333333">Lower interest</text>
<line x1="808" y1="188" x2="836" y2="188" stroke="#A45A7A" stroke-width="4" stroke-linecap="round"/>
<text x="846" y="192" font-family="Arial, sans-serif" font-size="13" fill="#333333">Higher benefit</text>
</svg>